<svg xmlns="http://www.w3.org/2000/svg" width="600" height="400" viewBox="0 0 600 400">
  <defs>
    <style>
      .cls-1 {
        fill: none;
        stroke: #fff;
        stroke-linejoin: round;
        stroke-width: 6px;
      }

      .cls-1, .cls-2 {
        fill-rule: evenodd;
      }

      .cls-2, .cls-3 {
        fill: #fff;
      }
    </style>
  </defs>
  <path class="cls-1" d="M112,106c-0.223,226.338,391.864,225.872,392,0"/>
  <path class="cls-2" d="M218,102c-0.087,116.635,179.889,124.007,180-2"/>
  <rect id="Rounded_Rectangle_1" data-name="Rounded Rectangle 1" class="cls-3" x="28" y="100" width="560" height="6" rx="7.5" ry="7.5"/>
  <rect id="Rounded_Rectangle_2" data-name="Rounded Rectangle 2" class="cls-3" x="300.5" y="302.5" width="15" height="60" rx="7.5" ry="7.5"/>
  <path id="Rounded_Rectangle_2-2" data-name="Rounded Rectangle 2" class="cls-2" d="M454,270.519a7.5,7.5,0,0,1,10.245,2.745l22.5,38.972a7.5,7.5,0,1,1-12.99,7.5l-22.5-38.972A7.5,7.5,0,0,1,454,270.519Z"/>
  <path id="Rounded_Rectangle_2-3" data-name="Rounded Rectangle 2" class="cls-2" d="M165,270.519a7.5,7.5,0,0,1,2.745,10.245l-22.5,38.972a7.5,7.5,0,1,1-12.99-7.5l22.5-38.972A7.5,7.5,0,0,1,165,270.519Z"/>
  <path id="Rounded_Rectangle_2-4" data-name="Rounded Rectangle 2" class="cls-2" d="M565.481,221a7.5,7.5,0,0,1-10.245,2.745l-38.972-22.5a7.5,7.5,0,0,1,7.5-12.99l38.972,22.5A7.5,7.5,0,0,1,565.481,221Z"/>
  <path id="Rounded_Rectangle_2_copy" data-name="Rounded Rectangle 2 copy" class="cls-2" d="M107.983,192.745a7.5,7.5,0,0,1-5.3,9.186L59.214,213.578a7.5,7.5,0,0,1-3.882-14.489L98.8,187.442A7.5,7.5,0,0,1,107.983,192.745Zm-5.3,9.186L59.214,213.578a7.5,7.5,0,0,1-9.186-5.3m52.652-6.343L59.214,213.578a7.5,7.5,0,0,1-9.186-5.3"/>
</svg>
